<?xml version="1.0" encoding="utf-8"?>
<!-- Generator: Adobe Illustrator 24.3.0, SVG Export Plug-In . SVG Version: 6.00 Build 0)  -->
<svg version="1.1" id="Layer_1" xmlns="http://www.w3.org/2000/svg" xmlns:xlink="http://www.w3.org/1999/xlink" x="0px" y="0px"
	 viewBox="0 0 200 99" style="enable-background:new 0 0 200 99;" xml:space="preserve">
<style type="text/css">
	.st0{fill:#EE4689;}
	.st1{fill:url(#SVGID_1_);}
	.st2{fill:#2B2B2B;}
	.st3{fill:#38BCD5;}
</style>
<g>
	<g>
		<path class="st0" d="M191.7,10.1c0.2-0.2,0.4-0.5,0.6-0.9c0.1-0.3,0.2-0.7,0.2-1.1c0-0.3-0.1-0.7-0.2-1c-0.1-0.3-0.3-0.6-0.5-0.9
			c-0.2-0.3-0.5-0.5-0.8-0.6c-0.3-0.2-0.7-0.2-1-0.2h-3.6v8.3h1.3v-2.9h1.9l1.8,2.9h1.5l-2-3.2C191.2,10.5,191.4,10.3,191.7,10.1z
			 M190.5,9.5c-0.2,0.1-0.4,0.2-0.6,0.2h-2.3V6.6h2.2c0.2,0,0.5,0.1,0.7,0.2c0.2,0.1,0.4,0.3,0.5,0.6c0.1,0.2,0.2,0.5,0.2,0.8
			c0,0.3-0.1,0.5-0.2,0.8C190.8,9.2,190.7,9.4,190.5,9.5z"/>
		<path class="st0" d="M188.8,1.4c-4.5,0-8.1,3.6-8.1,8.1c0,4.5,3.6,8.1,8.1,8.1c4.5,0,8.1-3.6,8.1-8.1C196.9,5,193.3,1.4,188.8,1.4
			z M188.8,16.9c-4.1,0-7.5-3.3-7.5-7.5s3.3-7.5,7.5-7.5s7.5,3.3,7.5,7.5S193,16.9,188.8,16.9z"/>
	</g>
	<g>
		<linearGradient id="SVGID_1_" gradientUnits="userSpaceOnUse" x1="130.5897" y1="24.2108" x2="130.5897" y2="82.0126">
			<stop  offset="0" style="stop-color:#EE4689"/>
			<stop  offset="1" style="stop-color:#38BCD5"/>
		</linearGradient>
		<path class="st1" d="M72.1,20.9c1,0.1,1.9,0.1,2.6,0.1c0.7,0,1.3,0,1.8,0c0.5,0,1.1,0,1.8,0c0.7,0,1.7-0.1,3-0.1L89,42.8l7.7-21.8
			c1.2,0.1,2.1,0.1,2.7,0.1s1.2,0,1.5,0c0.5,0,1.2,0,1.9,0c0.7,0,1.7-0.1,2.8-0.1v1.6c-1.4,0-2.3,0.2-2.7,0.5
			c-0.4,0.3-0.6,1.2-0.6,2.6v18.9c0,1.5,0.2,2.4,0.6,2.8c0.4,0.4,1.3,0.5,2.7,0.5v1.6c-1.6-0.1-2.7-0.1-3.6-0.2c-0.8,0-1.5,0-2.1,0
			c-0.6,0-1.3,0-2.1,0c-0.9,0-2.1,0.1-3.7,0.2v-1.6c1.4,0,2.3-0.2,2.7-0.6c0.4-0.4,0.6-1.3,0.6-2.8l0-20.9h-0.2l-9.1,25.6l-1.9-0.2
			l-9-25.4H77l-0.2,20v0.5c0,1.6,0.2,2.6,0.6,3.1c0.4,0.5,1.3,0.7,2.6,0.7v1.6c-0.8-0.1-1.5-0.1-2.2-0.1c-0.7,0-1.3,0-1.9,0
			c-0.6,0-1.3,0-2.1,0c-0.8,0-1.5,0.1-2.4,0.1l0-1.6c1.5,0,2.5-0.2,2.9-0.6c0.4-0.4,0.6-1.5,0.7-3.5l0.2-19.1v-0.2
			c0-0.8-0.2-1.4-0.6-1.6c-0.4-0.2-1.3-0.4-2.7-0.4V20.9z M107.8,20.9c1.2,0.1,2.3,0.1,3.2,0.2c0.9,0,1.6,0.1,2.2,0.1
			c1,0,2.7-0.1,5.1-0.2c0.4,0,0.7,0,0.9,0v1.6c-0.9,0-1.5,0.1-1.9,0.3c-0.4,0.2-0.6,0.5-0.6,0.9c0,0.1,0,0.2,0,0.3
			c0,0.1,0.1,0.2,0.1,0.4l5.6,10.1l4.8-9l0.1-0.1c0.4-0.7,0.5-1.2,0.5-1.6s-0.2-0.7-0.6-0.9c-0.4-0.2-1-0.3-1.8-0.3h-0.3l0-1.6
			c0.9,0.1,1.7,0.1,2.3,0.1s1.2,0,1.6,0c0.4,0,0.9,0,1.5,0c0.6,0,1.3-0.1,2.3-0.1v1.6c-0.8,0.1-1.3,0.2-1.7,0.4
			c-0.4,0.2-0.7,0.6-1.1,1.3l-6.8,12v8.3c0,1.5,0.2,2.4,0.6,2.8c0.4,0.4,1.3,0.6,2.7,0.6h0.4v1.6c-1.8-0.1-3.1-0.1-4-0.2
			c-0.9,0-1.5,0-2.1,0c-0.6,0-1.3,0-2.3,0c-1,0-2.3,0.1-4,0.2v-1.6h0.3c1.4,0,2.3-0.2,2.7-0.6c0.4-0.4,0.6-1.3,0.6-2.8v-7.9l-7-11.8
			c-0.6-1.1-1.2-1.7-1.6-2c-0.4-0.3-1-0.4-1.8-0.4h-0.1V20.9z M135.4,20.9c0.9,0,1.7,0.1,2.6,0.1c0.9,0,1.8,0,2.6,0
			c0.7,0,1.8,0,3.2-0.1c1.4,0,2.5-0.1,3.1-0.1c3.6,0,6.3,0.6,8.1,1.7c1.8,1.2,2.7,2.9,2.7,5.2c0,2.3-0.7,4-2.1,5.2
			c-1.4,1.2-3.6,1.9-6.6,2c2.7,0.2,4.6,0.7,5.8,1.6c1.2,0.9,1.9,2.5,2.1,4.6c0.1,0.6,0.1,1.4,0.2,2.4c0.1,2.3,0.7,3.5,1.8,3.5
			c0.5,0,1-0.2,1.3-0.5c0.3-0.4,0.6-0.9,0.7-1.7l1.1,0.2c-0.2,1.6-0.8,2.8-1.6,3.5c-0.8,0.8-2,1.1-3.5,1.1c-1.7,0-2.9-0.4-3.7-1.3
			c-0.8-0.9-1.1-2.3-1.1-4.3c0-0.2,0-0.6,0-1.1c0-0.5,0-0.8,0-1.1c0-2.4-0.5-4-1.4-4.8c-0.9-0.8-2.6-1.2-5.1-1.2h-2v8.6
			c0,1.5,0.2,2.4,0.6,2.8c0.4,0.4,1.3,0.6,2.7,0.6v1.6c-1.6-0.1-2.8-0.1-3.6-0.2c-0.8,0-1.5,0-2,0c-0.6,0-1.3,0-2.1,0
			c-0.9,0-2.1,0.1-3.8,0.2v-1.6c1.4,0,2.3-0.2,2.7-0.6c0.4-0.4,0.6-1.3,0.6-2.8V25.9c0-1.5-0.2-2.4-0.6-2.8
			c-0.4-0.4-1.3-0.6-2.7-0.6V20.9z M143.8,34.3c0.3,0,0.6,0,1,0c0.3,0,0.7,0,1.2,0c2.4,0,4.1-0.5,5.1-1.5c1-1,1.6-2.5,1.6-4.7
			c0-2-0.5-3.4-1.5-4.4c-1-0.9-2.6-1.4-4.9-1.4c-0.5,0-1.2,0-2.2,0.1c-0.1,0-0.2,0-0.2,0L143.8,34.3z M175.3,20.6h2.1l9.2,25.3
			c0.3,0.9,0.7,1.4,1.1,1.7c0.4,0.3,1.1,0.4,2,0.4v1.6c-1.7-0.1-2.9-0.1-3.6-0.2c-0.8,0-1.4,0-1.8,0c-0.6,0-1.3,0-2.2,0
			c-0.9,0-2.1,0.1-3.8,0.2v-1.6c1,0,1.7-0.2,2.1-0.4c0.4-0.2,0.6-0.6,0.6-1.2c0-0.2,0-0.3,0-0.5c0-0.2,0-0.3-0.1-0.4l-2.1-6.3h-8.5
			l-1.6,4.6c0,0.1-0.1,0.2-0.1,0.3c-0.4,1.1-0.6,1.9-0.6,2.3c0,0.5,0.2,0.9,0.5,1.1c0.3,0.2,0.9,0.4,1.9,0.4v1.6
			c-0.7-0.1-1.4-0.1-2-0.1c-0.6,0-1.2,0-1.8,0c-0.5,0-1,0-1.6,0c-0.6,0-1.3,0.1-2,0.1v-1.6c0.9,0,1.5-0.1,1.9-0.4
			c0.4-0.3,0.8-0.9,1.1-1.8L175.3,20.6z M174.7,27l-3.8,10.6h7.4L174.7,27z M90.2,55.9l0.3-1.6h1.2c0,0.8,0,1.6-0.1,2.2
			c0,0.6,0,1.2,0,1.6c0,0.6,0,1.3,0,2.1c0,0.7,0,1.5,0.1,2.3h-1.3c-0.2-2.4-1-4.2-2.2-5.5c-1.2-1.3-2.9-1.9-4.9-1.9
			c-1.6,0-2.9,0.5-3.9,1.4c-1,0.9-1.5,2.1-1.5,3.6c0,1.2,0.4,2.2,1.1,3c0.7,0.8,2.3,1.6,4.8,2.5c3.8,1.4,6.2,2.7,7.4,4
			c1.2,1.2,1.7,2.8,1.7,4.8c0,2.5-0.9,4.5-2.7,6.1C88.4,82,86,82.7,83,82.7c-1.5,0-3-0.2-4.3-0.7c-1.3-0.5-2.6-1.3-3.7-2.3l-0.5,2
			h-1.1c0-0.5,0-1.1,0-1.9c0-1.5,0.1-2.5,0.1-3c0-0.4,0-1.2,0-2.6c0-0.8,0-1.4,0-1.9h1.4c0.2,2.8,0.9,4.9,2.3,6.5
			c1.4,1.6,3.3,2.3,5.6,2.3c1.7,0,3-0.5,4-1.4c1-0.9,1.5-2.1,1.5-3.7c0-1.2-0.4-2.2-1.1-3c-0.8-0.8-2.1-1.6-4.1-2.3
			c-0.2-0.1-0.6-0.2-1.1-0.4c-2.6-0.9-4.4-1.8-5.5-2.6c-1-0.8-1.8-1.6-2.3-2.6c-0.5-1-0.7-2.1-0.7-3.4c0-2.5,0.8-4.6,2.5-6.1
			c1.7-1.5,4-2.3,6.9-2.3c1.4,0,2.8,0.2,4,0.6C88,54.5,89.1,55.1,90.2,55.9z M95.6,53.8c1.2,0.1,2.3,0.1,3.2,0.2
			c0.9,0,1.6,0.1,2.2,0.1c1,0,2.7-0.1,5.1-0.2c0.4,0,0.7,0,0.9,0v1.6c-0.9,0-1.5,0.1-1.9,0.3c-0.4,0.2-0.6,0.5-0.6,0.9
			c0,0.1,0,0.2,0,0.3c0,0.1,0.1,0.2,0.1,0.4l5.6,10.1l4.8-9l0.1-0.1c0.4-0.7,0.5-1.2,0.5-1.6s-0.2-0.7-0.6-0.9
			c-0.4-0.2-1-0.3-1.8-0.3H113l0-1.6c0.9,0.1,1.7,0.1,2.3,0.1c0.6,0,1.2,0,1.6,0c0.4,0,0.9,0,1.5,0c0.6,0,1.3-0.1,2.3-0.1v1.6
			c-0.8,0.1-1.3,0.2-1.7,0.4c-0.4,0.2-0.7,0.6-1.1,1.3l-6.8,12v8.3c0,1.5,0.2,2.4,0.6,2.8c0.4,0.4,1.3,0.6,2.7,0.6h0.4v1.6
			c-1.8-0.1-3.1-0.1-4-0.2c-0.9,0-1.5,0-2.1,0c-0.6,0-1.3,0-2.3,0c-1,0-2.3,0.1-4,0.2v-1.6h0.3c1.4,0,2.3-0.2,2.7-0.6
			c0.4-0.4,0.6-1.3,0.6-2.8v-7.9l-7-11.8c-0.6-1.1-1.2-1.7-1.6-2c-0.4-0.3-1-0.4-1.8-0.4h-0.1V53.8z M123.2,53.8
			c0.9,0,1.7,0.1,2.6,0.1c0.9,0,1.8,0,2.6,0c0.7,0,1.8,0,3.2-0.1c1.4,0,2.5-0.1,3.1-0.1c3.6,0,6.3,0.6,8.1,1.7
			c1.8,1.2,2.7,2.9,2.7,5.2c0,2.3-0.7,4-2.1,5.2c-1.4,1.2-3.6,1.9-6.6,2c2.7,0.2,4.6,0.7,5.8,1.6c1.2,0.9,1.9,2.5,2.1,4.6
			c0.1,0.6,0.1,1.4,0.2,2.4c0.1,2.3,0.7,3.5,1.8,3.5c0.5,0,1-0.2,1.3-0.5c0.3-0.4,0.6-0.9,0.7-1.7l1.1,0.2c-0.2,1.6-0.8,2.8-1.6,3.5
			c-0.8,0.8-2,1.1-3.5,1.1c-1.7,0-2.9-0.4-3.7-1.3c-0.8-0.9-1.1-2.3-1.1-4.3c0-0.2,0-0.6,0-1.1c0-0.5,0-0.8,0-1.1
			c0-2.4-0.5-4-1.4-4.8c-0.9-0.8-2.6-1.2-5.1-1.2h-2v8.6c0,1.5,0.2,2.4,0.6,2.8c0.4,0.4,1.3,0.6,2.7,0.6v1.6
			c-1.6-0.1-2.8-0.1-3.6-0.2c-0.8,0-1.5,0-2,0c-0.6,0-1.3,0-2.1,0c-0.9,0-2.1,0.1-3.8,0.2v-1.6c1.4,0,2.3-0.2,2.7-0.6
			c0.4-0.4,0.6-1.3,0.6-2.8V58.7c0-1.5-0.2-2.4-0.6-2.8c-0.4-0.4-1.3-0.6-2.7-0.6V53.8z M131.5,67.2c0.3,0,0.6,0,1,0
			c0.3,0,0.7,0,1.2,0c2.4,0,4.1-0.5,5.1-1.5c1-1,1.6-2.5,1.6-4.7c0-2-0.5-3.4-1.5-4.4c-1-0.9-2.6-1.4-4.9-1.4c-0.5,0-1.2,0-2.2,0.1
			c-0.1,0-0.2,0-0.2,0L131.5,67.2z M163.1,53.5h2.1l9.2,25.3c0.3,0.9,0.7,1.4,1.1,1.7c0.4,0.3,1.1,0.4,2,0.4v1.6
			c-1.7-0.1-2.9-0.1-3.6-0.2c-0.8,0-1.4,0-1.8,0c-0.6,0-1.3,0-2.2,0c-0.9,0-2.1,0.1-3.8,0.2v-1.6c1,0,1.7-0.2,2.1-0.4
			c0.4-0.2,0.6-0.6,0.6-1.2c0-0.2,0-0.3,0-0.5c0-0.2,0-0.3-0.1-0.4l-2.1-6.3h-8.5l-1.6,4.6c0,0.1-0.1,0.2-0.1,0.3
			c-0.4,1.1-0.6,1.9-0.6,2.3c0,0.5,0.2,0.9,0.5,1.1c0.3,0.2,0.9,0.4,1.9,0.4v1.6c-0.7-0.1-1.4-0.1-2-0.1c-0.6,0-1.2,0-1.8,0
			c-0.5,0-1,0-1.6,0c-0.6,0-1.3,0.1-2,0.1v-1.6c0.9,0,1.5-0.1,1.9-0.4s0.8-0.9,1.1-1.8L163.1,53.5z M162.4,59.9l-3.8,10.6h7.4
			L162.4,59.9z"/>
		<g>
			<path class="st2" d="M4.3,97.4c-0.4-0.2-0.7-0.4-0.9-0.7c-0.2-0.3-0.3-0.7-0.3-1.1h1.3c0,0.3,0.2,0.6,0.4,0.8
				c0.2,0.2,0.5,0.3,0.9,0.3c0.4,0,0.7-0.1,1-0.3C6.9,96.1,7,95.8,7,95.5c0-0.2-0.1-0.5-0.2-0.6c-0.1-0.2-0.3-0.3-0.5-0.4
				c-0.2-0.1-0.5-0.2-0.9-0.3c-0.5-0.1-0.9-0.3-1.2-0.4c-0.3-0.1-0.6-0.3-0.8-0.6c-0.2-0.3-0.3-0.6-0.3-1.1c0-0.4,0.1-0.8,0.3-1.1
				c0.2-0.3,0.5-0.6,0.9-0.7C4.7,90.1,5.1,90,5.6,90c0.7,0,1.3,0.2,1.8,0.5c0.5,0.4,0.7,0.9,0.8,1.5H6.8c0-0.3-0.1-0.5-0.4-0.7
				c-0.2-0.2-0.5-0.3-0.9-0.3c-0.3,0-0.6,0.1-0.9,0.3c-0.2,0.2-0.3,0.4-0.3,0.8c0,0.2,0.1,0.4,0.2,0.6c0.1,0.1,0.3,0.3,0.5,0.3
				c0.2,0.1,0.5,0.2,0.9,0.3c0.5,0.1,0.9,0.3,1.2,0.4c0.3,0.1,0.6,0.3,0.8,0.6c0.2,0.3,0.3,0.7,0.3,1.1c0,0.4-0.1,0.7-0.3,1.1
				c-0.2,0.3-0.5,0.6-0.9,0.8c-0.4,0.2-0.8,0.3-1.4,0.3C5.2,97.6,4.7,97.6,4.3,97.4z"/>
			<path class="st2" d="M21.6,90.1v7.4h-1.2v-3.3h-3.5v3.3h-1.2v-7.4h1.2v3.2h3.5v-3.2H21.6z"/>
			<path class="st2" d="M30.7,97.2c-0.6-0.3-1-0.8-1.4-1.4c-0.3-0.6-0.5-1.2-0.5-2c0-0.7,0.2-1.4,0.5-2c0.3-0.6,0.8-1,1.4-1.4
				c0.6-0.3,1.2-0.5,1.9-0.5c0.7,0,1.3,0.2,1.9,0.5c0.6,0.3,1,0.8,1.4,1.4c0.3,0.6,0.5,1.2,0.5,2c0,0.7-0.2,1.4-0.5,2
				c-0.3,0.6-0.8,1-1.4,1.4c-0.6,0.3-1.2,0.5-1.9,0.5C31.9,97.6,31.3,97.5,30.7,97.2z M33.9,96.2c0.4-0.2,0.7-0.5,0.9-1
				c0.2-0.4,0.3-0.9,0.3-1.5c0-0.5-0.1-1-0.3-1.4c-0.2-0.4-0.5-0.7-0.9-1c-0.4-0.2-0.8-0.3-1.3-0.3c-0.5,0-0.9,0.1-1.3,0.3
				c-0.4,0.2-0.7,0.5-0.9,1c-0.2,0.4-0.3,0.9-0.3,1.4c0,0.5,0.1,1,0.3,1.5c0.2,0.4,0.5,0.7,0.9,1c0.4,0.2,0.8,0.3,1.3,0.3
				C33.1,96.6,33.6,96.5,33.9,96.2z"/>
			<path class="st2" d="M48.6,93.4c-0.2,0.3-0.5,0.6-0.9,0.8c-0.4,0.2-0.9,0.3-1.5,0.3h-1.3v3h-1.2v-7.4h2.6c0.6,0,1.1,0.1,1.5,0.3
				c0.4,0.2,0.7,0.5,0.9,0.8c0.2,0.3,0.3,0.7,0.3,1.1C48.8,92.7,48.7,93.1,48.6,93.4z M47.2,93.2c0.2-0.2,0.3-0.5,0.3-0.9
				c0-0.8-0.5-1.2-1.4-1.2h-1.3v2.4h1.3C46.7,93.6,47,93.4,47.2,93.2z"/>
			<path class="st2" d="M70.3,90.1l-2.5,4.7v2.7h-1.2v-2.7l-2.5-4.7h1.4l1.7,3.6l1.7-3.6H70.3z"/>
			<path class="st2" d="M78.7,97.2c-0.6-0.3-1-0.8-1.4-1.4c-0.3-0.6-0.5-1.2-0.5-2c0-0.7,0.2-1.4,0.5-2c0.3-0.6,0.8-1,1.4-1.4
				c0.6-0.3,1.2-0.5,1.9-0.5c0.7,0,1.3,0.2,1.9,0.5c0.6,0.3,1,0.8,1.4,1.4c0.3,0.6,0.5,1.2,0.5,2c0,0.7-0.2,1.4-0.5,2
				c-0.3,0.6-0.8,1-1.4,1.4s-1.2,0.5-1.9,0.5C79.9,97.6,79.3,97.5,78.7,97.2z M81.9,96.2c0.4-0.2,0.7-0.5,0.9-1
				c0.2-0.4,0.3-0.9,0.3-1.5c0-0.5-0.1-1-0.3-1.4c-0.2-0.4-0.5-0.7-0.9-1c-0.4-0.2-0.8-0.3-1.3-0.3c-0.5,0-0.9,0.1-1.3,0.3
				c-0.4,0.2-0.7,0.5-0.9,1c-0.2,0.4-0.3,0.9-0.3,1.4c0,0.5,0.1,1,0.3,1.5c0.2,0.4,0.5,0.7,0.9,1c0.4,0.2,0.8,0.3,1.3,0.3
				C81.1,96.6,81.6,96.5,81.9,96.2z"/>
			<path class="st2" d="M92.8,90.1v4.7c0,0.6,0.1,1,0.4,1.3c0.3,0.3,0.7,0.4,1.2,0.4c0.5,0,1-0.1,1.2-0.4c0.3-0.3,0.4-0.7,0.4-1.3
				v-4.7h1.2v4.7c0,0.6-0.1,1.1-0.4,1.5c-0.3,0.4-0.6,0.7-1.1,0.9c-0.4,0.2-0.9,0.3-1.5,0.3c-0.5,0-1-0.1-1.5-0.3
				c-0.4-0.2-0.8-0.5-1-0.9c-0.3-0.4-0.4-0.9-0.4-1.5v-4.7H92.8z"/>
			<path class="st2" d="M108.9,97.6l-1.7-3h-0.9v3H105v-7.4h2.6c0.6,0,1.1,0.1,1.5,0.3c0.4,0.2,0.7,0.5,0.9,0.8
				c0.2,0.3,0.3,0.7,0.3,1.1c0,0.5-0.1,0.9-0.4,1.3c-0.3,0.4-0.7,0.7-1.3,0.8l1.8,3.1H108.9z M106.2,93.6h1.3c0.5,0,0.8-0.1,1-0.3
				c0.2-0.2,0.3-0.5,0.3-0.9c0-0.4-0.1-0.7-0.3-0.9c-0.2-0.2-0.6-0.3-1-0.3h-1.3V93.6z"/>
			<path class="st2" d="M127.6,97.4c-0.4-0.2-0.7-0.4-0.9-0.7c-0.2-0.3-0.3-0.7-0.3-1.1h1.3c0,0.3,0.2,0.6,0.4,0.8
				c0.2,0.2,0.5,0.3,0.9,0.3c0.4,0,0.7-0.1,1-0.3c0.2-0.2,0.4-0.5,0.4-0.8c0-0.2-0.1-0.5-0.2-0.6c-0.1-0.2-0.3-0.3-0.5-0.4
				c-0.2-0.1-0.5-0.2-0.9-0.3c-0.5-0.1-0.9-0.3-1.2-0.4c-0.3-0.1-0.6-0.3-0.8-0.6c-0.2-0.3-0.3-0.6-0.3-1.1c0-0.4,0.1-0.8,0.3-1.1
				c0.2-0.3,0.5-0.6,0.9-0.7c0.4-0.2,0.8-0.3,1.3-0.3c0.7,0,1.3,0.2,1.8,0.5c0.5,0.4,0.7,0.9,0.8,1.5h-1.3c0-0.3-0.1-0.5-0.4-0.7
				c-0.2-0.2-0.5-0.3-0.9-0.3c-0.3,0-0.6,0.1-0.9,0.3c-0.2,0.2-0.3,0.4-0.3,0.8c0,0.2,0.1,0.4,0.2,0.6c0.1,0.1,0.3,0.3,0.5,0.3
				c0.2,0.1,0.5,0.2,0.9,0.3c0.5,0.1,0.9,0.3,1.2,0.4c0.3,0.1,0.6,0.3,0.8,0.6c0.2,0.3,0.3,0.7,0.3,1.1c0,0.4-0.1,0.7-0.3,1.1
				s-0.5,0.6-0.9,0.8c-0.4,0.2-0.8,0.3-1.4,0.3C128.5,97.6,128,97.6,127.6,97.4z"/>
			<path class="st2" d="M143.8,90.1v1h-2v6.4h-1.2v-6.4h-2v-1H143.8z"/>
			<path class="st2" d="M156.5,90.1l-2.5,4.7v2.7h-1.2v-2.7l-2.5-4.7h1.4l1.7,3.6l1.7-3.6H156.5z"/>
			<path class="st2" d="M164.7,96.6h2.5v1h-3.7v-7.4h1.2V96.6z"/>
			<path class="st2" d="M175.5,91.1v2.2h2.6v1h-2.6v2.3h2.9v1h-4.1v-7.4h4.1v1H175.5z"/>
		</g>
		<path class="st3" d="M38.8,52.7c-3.6-2.4-9.8-5.5-9.8-10.6c0-5.5,5.2-5.8,5.2-5.8c5.8,0.1,5.7,4.8,5.7,4.8h0.9l-0.2-5.6
			c-2-0.8-6.3-0.6-6.3-0.6c-3.2,0.5-6.7,2-7.5,5.5c-1,4.6,2.2,8,5.5,10.6c3.5,2.8,8.6,5.6,9.2,10.5c0.6,4.8-3.1,9.4-8,9.6
			c-15.5,0.5-7.3-14.5-7.3-14.5s-3.3,2.9-3,8.4c0.5,6.8,6.4,7.9,9.9,8c5.2,0.1,10.7-3,11.4-8.6C45.1,60.1,42.5,55.2,38.8,52.7z"/>
		<g>
			<path class="st0" d="M32.9,61.6c0,0-6.3-14.6-11.3-25.2S7.4,29.2,7.4,29.2c2.4-0.1,4.4,0.7,6,1.8c3.2,2.2,4.9,6.1,4.5,10
				c-0.7,6.7-1.9,19.2-2.1,21.9c-0.4,3.8-4.5,3.1-4.5,3.1v0.9l9.8,0.1l0-0.9c-2.9,0-2.9-2.1-2.9-2.1L20.4,41l12,26.8l4.7-11.1
				l-1.7-1.5L32.9,61.6z"/>
			<path class="st0" d="M50.7,62.8c-2.2-11-4.2-30-4.2-30L38,50.1l1.8,0.7l4.4-9.7l3,21.1c0.5,3.5,2.1,6.8,4.7,9.2
				c2.4,2.2,6,4.1,11.1,3.5C63.1,74.9,52.9,73.9,50.7,62.8z"/>
		</g>
		<g>
			<path class="st2" d="M67.4,84H3.1V19.7h64.3V84z M3.9,83.1h62.5V20.6H3.9V83.1z"/>
		</g>
	</g>
</g>
</svg>
